Coordinates
version=1
nRows=11
nColumns=46
inDegrees=yes

Units are S.I. units (second, meters, Newtons, ...)
Angles are in degrees.

endheader
time	pelvis_tilt	pelvis_list	pelvis_rotation	pelvis_tx	pelvis_ty	pelvis_tz	bb_angle	bb_tx	bb_ty	bb_tz	hip_flexion_r	hip_adduction_r	hip_rotation_r	knee_angle_r	knee_angle_r_beta	ankle_angle_r	subtalar_angle_r	mtp_angle_r	crank_angle_r	hip_flexion_l	hip_adduction_l	hip_rotation_l	knee_angle_l	knee_angle_l_beta	ankle_angle_l	subtalar_angle_l	mtp_angle_l	crank_angle_l	lumbar_extension	lumbar_bending	lumbar_rotation	arm_flex_r	arm_add_r	arm_rot_r	elbow_flex_r	pro_sup_r	wrist_flex_r	wrist_dev_r	arm_flex_l	arm_add_l	arm_rot_l	elbow_flex_l	pro_sup_l	wrist_flex_l	wrist_dev_l
      5.00500000	    -26.82393173	     -8.00535478	    -11.51904310	      0.40469270	      1.22564245	     -0.23143879	      0.00000000	      0.50000000	      0.00000000	      0.25000000	     80.94832537	      2.34120187	     -9.87424715	     93.69766017	      1.63533267	     -9.86735490	     -1.85846557	      0.00000000	      0.00000000	     29.41172400	    -17.98244836	     -8.59845673	     32.62745215	      0.56945647	    -20.02402443	     -4.45684085	      0.00000000	      0.00000000	    -64.34012750	      6.97279748	     11.23854614	     85.13346420	    -11.95260763	     51.88139064	     54.18045949	     56.68123055	      0.00000000	      0.00000000	     52.56333933	    -28.16113845	     20.78904627	     78.40491465	     52.27673536	      0.00000000	      0.00000000
      5.01000000	    -27.32238358	     -7.98548559	    -11.54129733	      0.40402061	      1.22735568	     -0.23123829	      0.00000000	      0.50000000	      0.00000000	      0.25000000	     80.70228673	      2.71384931	     -9.74855725	     91.87131454	      1.60345693	     -8.31963401	     -0.64168911	      0.00000000	      0.00000000	     30.99684707	    -18.30134364	     -7.96159448	     35.17728194	      0.61395939	    -20.00265943	     -4.23237370	      0.00000000	      0.00000000	    -64.46602557	      7.20845907	     11.52919653	     85.16344569	    -11.95427783	     51.08633375	     54.93088989	     56.66878101	      0.00000000	      0.00000000	     52.68381925	    -28.52858467	     21.19869334	     78.73667031	     52.45659332	      0.00000000	      0.00000000
      5.01500000	    -27.50020696	     -7.87914696	    -11.52753200	      0.40397840	      1.22974889	     -0.23097360	      0.00000000	      0.50000000	      0.00000000	      0.25000000	     79.97431936	      3.14769250	     -9.36978045	     89.93400474	      1.56964449	     -6.76915198	      0.21513232	      0.00000000	      0.00000000	     32.14791524	    -18.46733966	     -7.48951875	     37.51096450	      0.65468984	    -20.46079715	     -4.32102893	      0.00000000	      0.00000000	    -64.98257970	      7.36203268	     11.56292481	     85.41030559	    -11.74420864	     50.61303946	     55.50060119	     56.67703746	      0.00000000	      0.00000000	     52.75637144	    -28.87822362	     21.05172254	     79.14340420	     52.54347910	      0.00000000	      0.00000000
      5.02000000	    -27.77311349	     -7.72836415	    -11.60953337	      0.40400439	      1.23188492	     -0.23050425	      0.00000000	      0.50000000	      0.00000000	      0.25000000	     79.21211219	      3.64077199	     -8.98353509	     87.83410930	      1.53299440	     -5.32835676	      0.81575295	      0.00000000	      0.00000000	     33.44286969	    -18.70306541	     -7.15203085	     39.95749901	      0.69738992	    -20.76839109	     -4.14381832	      0.00000000	      0.00000000	    -65.48842157	      7.33617235	     11.33028349	     85.34879320	    -11.47247203	     49.67027944	     56.75725640	     56.70937049	      0.00000000	      0.00000000	     52.24509408	    -29.59327982	     20.28553423	     80.58345859	     52.81317770	      0.00000000	      0.00000000
      5.02500000	    -28.04368117	     -7.43028417	    -11.47487935	      0.40366071	      1.23365833	     -0.23051849	      0.00000000	      0.50000000	      0.00000000	      0.25000000	     78.38047325	      3.84846974	     -8.50677072	     85.65672670	      1.49499191	     -3.86931091	      1.28067535	      0.00000000	      0.00000000	     34.90488607	    -18.60824474	     -6.51683387	     42.43767061	      0.74067708	    -21.14435005	     -4.01180787	      0.00000000	      0.00000000	    -65.90308532	      7.46521657	     10.75866520	     85.42035816	    -10.86498630	     48.79571630	     57.45759185	     56.65991495	      0.00000000	      0.00000000	     51.76583889	    -30.33000628	     19.42884965	     81.92582839	     53.04740020	      0.00000000	      0.00000000
      5.03000000	    -28.30724248	     -7.05417671	    -11.26950027	      0.40331209	      1.23509148	     -0.23071136	      0.00000000	      0.50000000	      0.00000000	      0.25000000	     77.45008100	      3.91529638	     -8.00232922	     83.38720751	      1.45538133	     -2.35452831	      1.85017640	      0.00000000	      0.00000000	     36.42546179	    -18.36762499	     -5.83106826	     44.95197734	      0.78456001	    -21.48345405	     -3.82702337	      0.00000000	      0.00000000	    -66.15456680	      7.55415542	     10.27471448	     85.43384550	    -10.64625563	     48.39685719	     58.02570844	     56.67875897	      0.00000000	      0.00000000	     51.65878705	    -30.68580698	     19.11895627	     82.48461058	     53.14083183	      0.00000000	      0.00000000
      5.03500000	    -28.51605947	     -6.62214380	    -11.15030393	      0.40335592	      1.23642817	     -0.23064662	      0.00000000	      0.50000000	      0.00000000	      0.25000000	     76.33855489	      4.10363310	     -7.40893631	     80.98257343	      1.41341254	     -0.96943909	      1.96385371	      0.00000000	      0.00000000	     37.80408114	    -18.14601710	     -5.40000400	     47.38918587	      0.82709732	    -21.80601388	     -3.73414503	      0.00000000	      0.00000000	    -66.42361203	      7.43567966	      9.74734664	     85.46920583	    -10.48938326	     47.91228206	     58.55908357	     56.68564540	      0.00000000	      0.00000000	     51.84836541	    -30.88687728	     18.74427582	     83.02713654	     53.20138010	      0.00000000	      0.00000000
      5.04000000	    -28.92063142	     -6.21714584	    -10.78097098	      0.40298174	      1.23687873	     -0.23107850	      0.00000000	      0.50000000	      0.00000000	      0.25000000	     75.38316982	      3.90102223	     -7.15306043	     78.50088844	      1.37009897	      0.07744200	      2.11446126	      0.00000000	      0.00000000	     39.62131021	    -17.76647623	     -4.57242255	     49.97864572	      0.87229192	    -21.96416926	     -3.15781242	      0.00000000	      0.00000000	    -66.46831089	      7.58712566	      9.01086542	     84.80772930	    -10.22152836	     46.50959623	     60.00237647	     56.70158299	      0.00000000	      0.00000000	     51.19945102	    -31.39200737	     17.99748344	     84.43785123	     53.40594639	      0.00000000	      0.00000000
      5.04500000	    -28.90759421	     -5.23661439	    -10.57057836	      0.40309615	      1.23809036	     -0.23158229	      0.00000000	      0.50000000	      0.00000000	      0.25000000	     74.02140130	      3.59025388	     -6.28836961	     75.91376233	      1.32494510	      0.69574843	      1.86896790	      0.00000000	      0.00000000	     40.61358166	    -16.83873837	     -4.47936577	     52.04339739	      0.90832864	    -22.36639755	     -3.11315849	      0.00000000	      0.00000000	    -66.56061375	      7.18155501	      8.01840448	     84.70831194	    -10.30303932	     46.36800978	     60.12944987	     56.70237875	      0.00000000	      0.00000000	     51.26884934	    -31.19467981	     17.99307583	     84.53849369	     53.42410692	      0.00000000	      0.00000000
      5.05000000	    -29.62405312	     -4.83948375	    -10.30912912	      0.40231645	      1.23706397	     -0.23129898	      0.00000000	      0.50000000	      0.00000000	      0.25000000	     73.31324148	      3.46835729	     -6.28692464	     73.26711882	      1.27875246	      1.43259636	      1.37570615	      0.00000000	      0.00000000	     42.88576471	    -16.64919057	     -3.87063652	     54.85615293	      0.95742048	    -22.57290519	     -3.19618625	      0.00000000	      0.00000000	    -66.18254998	      6.98894739	      7.28522391	     82.75622374	     -9.78138716	     43.22274120	     62.71125655	     56.65443824	      0.00000000	      0.00000000	     50.63645333	    -31.58508740	     16.65552525	     86.31940098	     53.68272506	      0.00000000	      0.00000000
      5.05500000	    -29.56174267	     -3.95638101	     -9.94636495	      0.40271745	      1.23765471	     -0.23129719	      0.00000000	      0.50000000	      0.00000000	      0.25000000	     71.81944908	      2.98302957	     -5.73571110	     70.65894672	      1.23323127	      1.82010314	      1.14950246	      0.00000000	      0.00000000	     43.91134801	    -15.84912921	     -3.86603933	     56.99557396	      0.99476042	    -22.87179988	     -3.16122551	      0.00000000	      0.00000000	    -66.18953745	      6.58657811	      6.34269416	     82.53336122	     -9.88237094	     43.12849537	     62.79182348	     56.65610643	      0.00000000	      0.00000000	     50.68793424	    -31.37533365	     16.72940263	     86.32924068	     53.69611138	      0.00000000	      0.00000000
